<svg width="48" height="48" viewBox="0 0 48 48" fill="none" xmlns="http://www.w3.org/2000/svg">
<g id="Group 143725654">
<g id="Group 143725649">
<rect id="Rectangle 11557" width="48" height="48" rx="10" fill="#118EFF"/>
<g id="Black_Logo">
<path id="Vector" fill-rule="evenodd" clip-rule="evenodd" d="M24.0001 9C15.5502 9 9 15.1898 9 23.5501C9 27.923 10.7921 31.7019 13.7108 34.3119C13.9557 34.5313 14.1038 34.8384 14.1139 35.1673L14.1957 37.8354C14.2219 38.6867 15.1009 39.2402 15.8798 38.8967L18.8569 37.5823C19.1093 37.4709 19.3921 37.4503 19.6579 37.5234C21.0259 37.8995 22.4821 38.1002 24.0001 38.1002C32.45 38.1002 39.0002 31.9104 39.0002 23.5501C39.0002 15.1898 32.45 9 24.0001 9ZM33.0076 20.1949L28.6014 27.1857C27.9005 28.2976 26.3994 28.5747 25.3478 27.7861L21.8431 25.1577C21.5217 24.9166 21.0792 24.9177 20.7589 25.1607L16.026 28.7529C15.3942 29.2321 14.5695 28.4761 14.9925 27.8052L19.3988 20.8144C20.0997 19.7022 21.6004 19.4254 22.6523 20.2141L26.1567 22.8425C26.4781 23.0836 26.9206 23.0825 27.2409 22.8395L31.9738 19.2473C32.6056 18.7681 33.4303 19.5241 33.0073 20.1949H33.0076Z" fill="white"/>
<path id="Vector_2" d="M24.0001 9C15.5502 9 9 15.1898 9 23.5501C9 27.923 10.7921 31.7019 13.7108 34.3119C13.9557 34.5313 14.1038 34.8384 14.1139 35.1673L14.1957 37.8354C14.2219 38.6867 15.1009 39.2402 15.8798 38.8967L18.8569 37.5823C19.1093 37.4709 19.3921 37.4503 19.6579 37.5234C21.0259 37.8995 22.4821 38.1002 24.0001 38.1002C32.45 38.1002 39.0002 31.9104 39.0002 23.5501C39.0002 15.1898 32.45 9 24.0001 9ZM33.0076 20.1949L28.6014 27.1857C27.9005 28.2976 26.3994 28.5747 25.3478 27.7861L21.8431 25.1577C21.5217 24.9166 21.0792 24.9177 20.7589 25.1607L16.026 28.7529C15.3942 29.2321 14.5695 28.4761 14.9925 27.8052L19.3988 20.8144C20.0997 19.7022 21.6004 19.4254 22.6523 20.2141L26.1567 22.8425C26.4781 23.0836 26.9206 23.0825 27.2409 22.8395L31.9738 19.2473C32.6056 18.7681 33.4303 19.5241 33.0073 20.1949H33.0076Z" fill="white"/>
</g>
</g>
</g>
</svg>
