<svg width="48" height="48" viewBox="0 0 48 48" fill="none" xmlns="http://www.w3.org/2000/svg">
<rect width="48" height="48" fill="#F5F5F5"/>
<g id="CX">
<path d="M-3508 -3399C-3508 -3400.1 -3507.1 -3401 -3506 -3401H1278C1279.1 -3401 1280 -3400.1 1280 -3399V9237C1280 9238.1 1279.1 9239 1278 9239H-3506C-3507.1 9239 -3508 9238.1 -3508 9237V-3399Z" fill="#E8E8E8"/>
<path d="M-3506 -3400H1278V-3402H-3506V-3400ZM1279 -3399V9237H1281V-3399H1279ZM1278 9238H-3506V9240H1278V9238ZM-3507 9237V-3399H-3509V9237H-3507ZM-3506 9238C-3506.55 9238 -3507 9237.55 -3507 9237H-3509C-3509 9238.66 -3507.66 9240 -3506 9240V9238ZM1279 9237C1279 9237.55 1278.55 9238 1278 9238V9240C1279.66 9240 1281 9238.66 1281 9237H1279ZM1278 -3400C1278.55 -3400 1279 -3399.55 1279 -3399H1281C1281 -3400.66 1279.66 -3402 1278 -3402V-3400ZM-3506 -3402C-3507.66 -3402 -3509 -3400.66 -3509 -3399H-3507C-3507 -3399.55 -3506.55 -3400 -3506 -3400V-3402Z" fill="black" fill-opacity="0.1"/>
<g id="CX - Mobile">
<rect width="375" height="6941" transform="translate(-52 -2692)" fill="white"/>
<g id="Frame 143726222">
<rect id="Rectangle 11582" x="-52" y="-1556" width="375" height="3478" fill="white"/>
<g id="Frame 143726220">
<g id="INTEGRATION">
<rect x="-31.5" y="-31.5" width="334" height="241" rx="7.5" fill="#FAFAFA"/>
<rect x="-31.5" y="-31.5" width="334" height="241" rx="7.5" stroke="#F0F0F0"/>
<g id="Frame 370044">
<g id="Group 143725650">
<g id="Group 143725648">
<rect id="Rectangle 11556" width="48" height="48" rx="12" fill="#E60023"/>
</g>
<g id="svg2" clip-path="url(#clip0_0_1)">
<path id="Vector" d="M20.3297 39.5249C20.6242 38.4088 21.8419 33.8581 21.8419 33.8581C22.6329 35.3401 24.9457 36.5954 27.4049 36.5954C34.7251 36.5954 40 29.9827 40 21.7677C40 13.5527 33.4581 8 25.038 8C14.563 8 9 14.9065 9 22.4259C9 25.9229 10.8957 30.2751 13.9263 31.6617C14.3863 31.8727 14.6314 31.7789 14.7381 31.3428C14.8193 31.0114 15.2283 29.3918 15.4114 28.6399C15.4703 28.3991 15.4416 28.1928 15.2427 27.9567C14.2399 26.7624 13.4361 24.566 13.4361 22.5165C13.4361 17.2593 17.4901 12.1708 24.3965 12.1708C30.3591 12.1708 34.5357 16.1618 34.5357 21.8693C34.5357 28.3178 31.2202 32.7857 26.9051 32.7857C24.5223 32.7857 22.7396 30.8503 23.311 28.4789C23.9954 25.6446 25.3213 22.5869 25.3213 20.5421C25.3213 18.7115 24.3217 17.1842 22.2509 17.1842C19.8156 17.1842 17.8594 19.6589 17.8594 22.973C17.8594 25.085 18.5852 26.5123 18.5852 26.5123C18.5852 26.5123 16.1802 36.5016 15.7393 38.3619C15.2506 40.4207 15.4432 43.3206 15.6549 45.2074C16.4539 45.5138 17.2721 45.7796 18.1093 46.0031C17.8419 45.9312 17.5761 45.8562 17.3135 45.7765C18.3035 44.1929 19.7822 41.5978 20.3297 39.5265V39.5249Z" fill="white"/>
</g>
</g>
</g>
</g>
</g>
</g>
</g>
</g>
<defs>
<clipPath id="clip0_0_1">
<rect width="31" height="38" fill="white" transform="translate(9 6)"/>
</clipPath>
</defs>
</svg>
