<svg width="48" height="48" viewBox="0 0 48 48" fill="none" xmlns="http://www.w3.org/2000/svg">
<g id="Group 143725653">
<g id="Group 143725650">
<g id="Group 143725648">
<rect id="Rectangle 11556" width="48" height="48" rx="12" fill="#34DFA0"/>
</g>
</g>
<path id="Vector" d="M37.3833 19.8265L40 17.0562H34.1999C31.2957 15.1274 27.7895 14 23.9979 14C20.2063 14 16.7126 15.1274 13.8146 17.0562H8L10.6167 19.8265C9.01357 21.2499 8.00827 23.2994 8.00827 25.5784C8.00827 29.8768 11.5868 33.3598 16.0031 33.3598C18.1006 33.3598 20.0098 32.5726 21.4371 31.2861L24 34L26.5608 31.2861C27.9881 32.5726 29.8953 33.3598 31.9928 33.3598C36.4091 33.3598 39.9917 29.8768 39.9917 25.5784C39.9917 23.3014 38.9864 21.2499 37.3833 19.8265ZM16.001 30.8452C13.012 30.8452 10.5898 28.4876 10.5898 25.5784C10.5898 22.6692 13.012 20.3117 16.001 20.3117C18.99 20.3117 21.4123 22.6692 21.4123 25.5784C21.4123 28.4876 18.99 30.8452 16.001 30.8452ZM23.9979 25.4274C23.9979 21.9626 21.4081 18.9889 17.993 17.7165C19.8402 16.9636 21.8694 16.5488 23.9959 16.5488C26.1223 16.5488 28.1536 16.9656 30.0028 17.7185C26.5877 18.9909 23.9979 21.9646 23.9979 25.4294M31.9928 30.8472C29.0037 30.8472 26.5815 28.4896 26.5815 25.5804C26.5815 22.6712 29.0037 20.3137 31.9928 20.3137C34.9818 20.3137 37.404 22.6712 37.404 25.5804C37.404 28.4896 34.9818 30.8472 31.9928 30.8472ZM31.9928 22.8202C30.4269 22.8202 29.1568 24.0564 29.1568 25.5804C29.1568 27.1045 30.4269 28.3406 31.9928 28.3406C33.5586 28.3406 34.8287 27.1045 34.8287 25.5804C34.8287 24.0564 33.5586 22.8202 31.9928 22.8202ZM18.837 25.5804C18.837 27.1045 17.5669 28.3406 16.001 28.3406C14.4352 28.3406 13.1651 27.1045 13.1651 25.5804C13.1651 24.0564 14.4352 22.8202 16.001 22.8202C17.5669 22.8202 18.837 24.0564 18.837 25.5804Z" fill="black"/>
</g>
</svg>
