<svg width="48" height="48" viewBox="0 0 48 48" fill="none" xmlns="http://www.w3.org/2000/svg">
<g id="Group 143725649">
<rect id="Rectangle 11557" width="48" height="48" rx="10" fill="#F61C0D"/>
<path id="Vector" d="M32.6684 13.0171H15.7669C12.4509 13.0171 9.7627 15.9526 9.7627 19.5737V28.7999C9.7627 32.4211 12.4509 35.3565 15.7669 35.3565H32.6684C35.9844 35.3565 38.6726 32.4211 38.6726 28.7999V19.5737C38.6726 15.9526 35.9844 13.0171 32.6684 13.0171ZM28.6078 24.6357L20.7024 28.753C20.4917 28.8627 20.2484 28.695 20.2484 28.4401V19.9483C20.2484 19.6898 20.4981 19.5223 20.7092 19.6392L28.6146 24.0138C28.8496 24.1438 28.8456 24.5119 28.6078 24.6357Z" fill="white"/>
</g>
</svg>
